<?xml version="1.0" ?>

<!-- Uploaded to: SVG Repo, www.svgrepo.com, Generator: SVG Repo Mixer Tools -->
<svg fill="#4D6A6D" width="800px" height="800px" viewBox="0 -0.69 31.596 31.596" xmlns="http://www.w3.org/2000/svg">

<g transform="translate(-546.778 -131.249)">

<path d="M562.576,133.9l2.281,7.02a3.7,3.7,0,0,0,3.527,2.563h7.38l-5.971,4.338a3.7,3.7,0,0,0-1.347,4.146l2.281,7.019-5.971-4.338a3.709,3.709,0,0,0-4.359,0l-5.972,4.338,2.281-7.019a3.7,3.7,0,0,0-1.347-4.146l-5.971-4.338h7.381a3.7,3.7,0,0,0,3.526-2.563l2.281-7.02m0-2.652a1.678,1.678,0,0,0-1.625,1.18l-2.558,7.874a1.708,1.708,0,0,1-1.624,1.181H548.49a1.708,1.708,0,0,0-1.005,3.09l6.7,4.866a1.708,1.708,0,0,1,.621,1.91l-2.559,7.874a1.714,1.714,0,0,0,1.631,2.243,1.682,1.682,0,0,0,1-.334l6.7-4.866a1.709,1.709,0,0,1,2.008,0l6.7,4.866a1.682,1.682,0,0,0,1,.334,1.714,1.714,0,0,0,1.631-2.243l-2.559-7.874a1.709,1.709,0,0,1,.621-1.91l6.7-4.866a1.708,1.708,0,0,0-1-3.09h-8.279a1.709,1.709,0,0,1-1.625-1.181l-2.558-7.874a1.678,1.678,0,0,0-1.625-1.18Z"/>

</g>

</svg>